<?xml version="1.0" encoding="iso-8859-1"?>
<!-- Uploaded to: SVG Repo, www.svgrepo.com, Generator: SVG Repo Mixer Tools -->
<!DOCTYPE svg PUBLIC "-//W3C//DTD SVG 1.1//EN" "http://www.w3.org/Graphics/SVG/1.1/DTD/svg11.dtd">
<svg fill="#000000" height="800px" width="800px" version="1.1" id="Capa_1" xmlns="http://www.w3.org/2000/svg" xmlns:xlink="http://www.w3.org/1999/xlink" 
	 viewBox="0 0 60 60" xml:space="preserve">
<g>
	<polygon points="49.554,0 31,0 31,16 59.554,16 	"/>
	<polygon points="29,0 10.446,0 0.446,16 29,16 	"/>
	<path d="M0,18v42h60V18H0z M22.707,43.707C22.512,43.902,22.256,44,22,44s-0.512-0.098-0.707-0.293
		c-0.391-0.391-0.391-1.023,0-1.414l2.999-2.999c0.092-0.093,0.203-0.166,0.326-0.217c0.244-0.101,0.52-0.101,0.764,0
		c0.123,0.051,0.233,0.124,0.326,0.217l2.999,2.999c0.391,0.391,0.391,1.023,0,1.414C28.512,43.902,28.256,44,28,44
		s-0.512-0.098-0.707-0.293L26,42.414V49c0,0.553-0.448,1-1,1s-1-0.447-1-1v-6.586L22.707,43.707z M38,54H22c-0.552,0-1-0.447-1-1
		s0.448-1,1-1h16c0.552,0,1,0.447,1,1S38.552,54,38,54z M38.707,43.707C38.512,43.902,38.256,44,38,44s-0.512-0.098-0.707-0.293
		L36,42.414V49c0,0.553-0.448,1-1,1s-1-0.447-1-1v-6.586l-1.293,1.293C32.512,43.902,32.256,44,32,44s-0.512-0.098-0.707-0.293
		c-0.391-0.391-0.391-1.023,0-1.414l2.999-2.999c0.092-0.093,0.203-0.166,0.326-0.217c0.244-0.101,0.52-0.101,0.764,0
		c0.123,0.051,0.233,0.124,0.326,0.217l2.999,2.999C39.098,42.684,39.098,43.316,38.707,43.707z M36,29H24c-1.654,0-3-1.346-3-3
		s1.346-3,3-3h12c1.654,0,3,1.346,3,3S37.654,29,36,29z"/>
</g>
</svg>